<svg xmlns="http://www.w3.org/2000/svg" width="350" height="80" viewBox="0 0 350 80">
  <rect width="350" height="80" fill="none"/>
    <path d="M196 0V1536H1224Q1449 1536 1586.5 1514.0Q1724 1492 1795.0 1440.5Q1866 1389 1891.0 1301.5Q1916 1214 1916 1084V1044Q1916 920 1890.5 833.5Q1865 747 1792.0 694.0Q1719 641 1581.0 616.5Q1443 592 1218 592H388V0ZM1724 1084Q1724 1179 1706.0 1236.0Q1688 1293 1634.0 1322.0Q1580 1351 1473.0 1360.5Q1366 1370 1187 1370H388V758H1187Q1366 758 1473.0 769.5Q1580 781 1634.0 811.5Q1688 842 1706.0 898.5Q1724 955 1724 1044Z" transform="translate(8,42) scale(0.01708984375,-0.01708984375)" fill="#00E5FF" />
  <path d="M1827 444Q1827 533 1813.0 584.0Q1799 635 1750.0 659.5Q1701 684 1598.0 691.5Q1495 699 1316 702L760 710Q554 713 429.0 735.0Q304 757 240.0 804.5Q176 852 154.5 932.0Q133 1012 133 1132Q133 1263 162.5 1348.0Q192 1433 269.5 1481.0Q347 1529 489.0 1548.5Q631 1568 856 1568H1284Q1488 1568 1624.0 1555.0Q1760 1542 1840.0 1495.0Q1920 1448 1954.5 1349.0Q1989 1250 1989 1077H1797Q1797 1211 1771.5 1279.5Q1746 1348 1687.5 1373.0Q1629 1398 1530.0 1400.0Q1431 1402 1284 1402H866Q687 1402 579.5 1395.0Q472 1388 417.0 1363.0Q362 1338 343.5 1283.0Q325 1228 325 1132Q325 1051 338.0 1002.0Q351 953 396.5 927.5Q442 902 537.0 892.5Q632 883 796 881L1392 873Q1602 870 1727.5 848.5Q1853 827 1915.5 779.0Q1978 731 1998.5 649.5Q2019 568 2019 444Q2019 309 1993.5 217.5Q1968 126 1895.0 71.0Q1822 16 1684.0 -8.0Q1546 -32 1321 -32H853Q648 -32 509.0 -14.0Q370 4 287.5 58.5Q205 113 169.0 221.0Q133 329 133 509H325Q325 368 348.0 291.0Q371 214 428.5 180.5Q486 147 589.5 140.5Q693 134 853 134H1311Q1490 134 1594.0 145.5Q1698 157 1748.0 189.5Q1798 222 1812.5 283.0Q1827 344 1827 444Z" transform="translate(42.02587890625,42) scale(0.01708984375,-0.01708984375)" fill="#00E5FF" />
  <path d="M1472 0V320H128V512L1408 1536H1664V480H1920V320H1664V0ZM320 480H1472V1408Z" transform="translate(78.63232421875,42) scale(0.01708984375,-0.01708984375)" fill="#00E5FF" />
  <path d="M128 512V672H896V512Z" transform="translate(113.63232421875,42) scale(0.01708984375,-0.01708984375)" fill="#FF6F00" />
  <path d="M196 1536H1224Q1449 1536 1586.5 1516.0Q1724 1496 1795.0 1447.0Q1866 1398 1891.0 1313.0Q1916 1228 1916 1098V1058Q1916 938 1887.5 851.5Q1859 765 1778.0 711.5Q1697 658 1538 636L1872 0H1680L1353 622Q1333 621 1311.5 621.0Q1290 621 1267 621H388V0H196ZM388 787H1237Q1408 787 1506.5 798.5Q1605 810 1651.5 839.0Q1698 868 1711.0 921.0Q1724 974 1724 1058V1098Q1724 1193 1706.0 1248.0Q1688 1303 1634.0 1329.0Q1580 1355 1473.0 1362.5Q1366 1370 1187 1370H388Z" transform="translate(131.13232421875,42) scale(0.01708984375,-0.01708984375)" fill="#FF6F00" />
  <path d="M1447 342Q1447 213 1408.5 139.0Q1370 65 1291.0 31.0Q1212 -3 1089.5 -12.5Q967 -22 798 -22Q605 -22 470.5 -2.5Q336 17 253.5 77.5Q171 138 133.5 259.0Q96 380 96 582Q96 778 132.5 896.0Q169 1014 251.0 1074.0Q333 1134 466.5 1154.0Q600 1174 793 1174Q1014 1174 1159.0 1143.0Q1304 1112 1375.5 1025.0Q1447 938 1447 770V523H289Q290 395 307.0 318.0Q324 241 375.0 202.0Q426 163 527.5 150.5Q629 138 798 138Q950 138 1043.5 144.0Q1137 150 1185.5 170.5Q1234 191 1251.0 232.0Q1268 273 1268 342ZM793 1014Q630 1014 530.5 1002.0Q431 990 379.0 955.5Q327 921 308.5 853.0Q290 785 289 674H1263V770Q1263 842 1246.5 889.5Q1230 937 1182.0 964.5Q1134 992 1040.5 1003.0Q947 1014 793 1014Z" transform="translate(166.798828125,42) scale(0.01708984375,-0.01708984375)" fill="#FF6F00" />
  <path d="M661 0Q485 0 379.0 35.5Q273 71 225.5 161.5Q178 252 178 416V1467H370V1152H1079V994H370V416Q370 304 390.5 249.0Q411 194 473.5 177.0Q536 160 661 160Q772 160 835.5 167.0Q899 174 929.0 204.5Q959 235 967.0 305.0Q975 375 975 502H1145Q1145 336 1124.5 236.0Q1104 136 1051.5 85.0Q999 34 904.5 17.0Q810 0 661 0Z" transform="translate(193.57861328125,42) scale(0.01708984375,-0.01708984375)" fill="#FF6F00" />
  <path d="M148 0V1152H340V993Q372 1044 404.5 1078.0Q437 1112 489.5 1132.0Q542 1152 632.0 1160.5Q722 1169 869 1169V1008Q671 1008 562.5 994.0Q454 980 407.0 946.5Q360 913 350.0 854.0Q340 795 340 704V0Z" transform="translate(215.744140625,42) scale(0.01708984375,-0.01708984375)" fill="#FF6F00" />
  <path d="M801 -22Q608 -22 473.0 -2.5Q338 17 255.0 77.5Q172 138 134.0 259.0Q96 380 96 582Q96 778 134.0 896.0Q172 1014 255.0 1074.0Q338 1134 473.0 1154.0Q608 1174 801 1174Q995 1174 1129.5 1154.0Q1264 1134 1347.0 1074.0Q1430 1014 1468.0 896.0Q1506 778 1506 582Q1506 380 1468.0 259.0Q1430 138 1347.0 77.5Q1264 17 1129.5 -2.5Q995 -22 801 -22ZM1314 582Q1314 725 1299.5 811.0Q1285 897 1236.0 940.5Q1187 984 1083.5 999.0Q980 1014 801 1014Q623 1014 519.0 999.0Q415 984 366.0 940.5Q317 897 302.5 811.0Q288 725 288 582Q288 434 302.5 345.0Q317 256 366.0 211.5Q415 167 519.0 152.5Q623 138 801 138Q980 138 1083.5 152.5Q1187 167 1236.0 211.5Q1285 256 1299.5 345.0Q1314 434 1314 582Z" transform="translate(232.5947265625,42) scale(0.01708984375,-0.01708984375)" fill="#FF6F00" />
  <path d="M192 0V1536H1416Q1590 1536 1701.5 1503.5Q1813 1471 1866.5 1388.5Q1920 1306 1920 1155Q1920 1019 1857.0 930.0Q1794 841 1664 832Q1834 815 1909.0 710.5Q1984 606 1984 448Q1984 311 1952.5 223.0Q1921 135 1847.0 86.5Q1773 38 1646.5 19.0Q1520 0 1331 0ZM384 896H1279Q1434 896 1533.0 907.0Q1632 918 1680.0 972.0Q1728 1026 1728 1155Q1728 1256 1699.5 1303.0Q1671 1350 1603.0 1363.0Q1535 1376 1416 1376H384ZM384 160H1331Q1468 160 1557.5 167.0Q1647 174 1698.5 201.0Q1750 228 1771.0 286.5Q1792 345 1792 448Q1792 554 1752.5 613.0Q1713 672 1642.5 698.0Q1572 724 1479.0 730.0Q1386 736 1279 736H384Z" transform="translate(259.97265625,42) scale(0.01708984375,-0.01708984375)" fill="#FF6F00" />
  <path d="M801 -22Q608 -22 473.0 -2.5Q338 17 255.0 77.5Q172 138 134.0 259.0Q96 380 96 582Q96 778 134.0 896.0Q172 1014 255.0 1074.0Q338 1134 473.0 1154.0Q608 1174 801 1174Q995 1174 1129.5 1154.0Q1264 1134 1347.0 1074.0Q1430 1014 1468.0 896.0Q1506 778 1506 582Q1506 380 1468.0 259.0Q1430 138 1347.0 77.5Q1264 17 1129.5 -2.5Q995 -22 801 -22ZM1314 582Q1314 725 1299.5 811.0Q1285 897 1236.0 940.5Q1187 984 1083.5 999.0Q980 1014 801 1014Q623 1014 519.0 999.0Q415 984 366.0 940.5Q317 897 302.5 811.0Q288 725 288 582Q288 434 302.5 345.0Q317 256 366.0 211.5Q415 167 519.0 152.5Q623 138 801 138Q980 138 1083.5 152.5Q1187 167 1236.0 211.5Q1285 256 1299.5 345.0Q1314 434 1314 582Z" transform="translate(296.06640625,42) scale(0.01708984375,-0.01708984375)" fill="#FF6F00" />
  <path d="M96 0 686 586 124 1152H380L819 707L1248 1152H1504L942 587L1532 0H1276L814 482L352 0Z" transform="translate(323.4443359375,42) scale(0.01708984375,-0.01708984375)" fill="#FF6F00" />
</svg>